REM DIRINDEX 1\2\6,1\2\7,1\2\8,1\2\9,1\3\10,1\3\11,1\4\12,1\4\13,1\4\14,1\5\15,1\5\16,1\5\17
REM DIRNAME cjc020,folder01,folder02,folder03,folder04,folder05,folder06,folder07,folder08,folder09,folder10,folder11,folder12,folder13,folder14,folder15,folder16
TITLE ""
FILE "1900_3_093 sec16_1538_1557.mp3" MP3
  TRACK 01 AUDIO
    TITLE "0:"
    INDEX 01 00:00:00
  TRACK 02 AUDIO
    TITLE "17:cjc020_9059"
    INDEX 01 00:00:13
  TRACK 03 AUDIO
    TITLE "0:"
    INDEX 01 00:00:66
  TRACK 04 AUDIO
    TITLE "16:cjc020_9060"
    INDEX 01 00:00:70
  TRACK 05 AUDIO
    TITLE "0:"
    INDEX 01 00:01:68
  TRACK 06 AUDIO
    TITLE "17:cjc020_9061"
    INDEX 01 00:02:51
  TRACK 07 AUDIO
    TITLE "0:"
    INDEX 01 00:03:66
  TRACK 08 AUDIO
    TITLE "16:cjc020_9062"
    INDEX 01 00:03:70
  TRACK 09 AUDIO
    TITLE "0:"
    INDEX 01 00:05:32
  TRACK 10 AUDIO
    TITLE "17:cjc020_9063"
    INDEX 01 00:06:14
  TRACK 11 AUDIO
    TITLE "0:"
    INDEX 01 00:07:15
  TRACK 12 AUDIO
    TITLE "16:cjc020_9064"
    INDEX 01 00:07:17
  TRACK 13 AUDIO
    TITLE "0:"
    INDEX 01 00:08:17
  TRACK 14 AUDIO
    TITLE "17:cjc020_9065"
    INDEX 01 00:09:02
  TRACK 15 AUDIO
    TITLE "0:"
    INDEX 01 00:09:67
  TRACK 16 AUDIO
    TITLE "16:cjc020_9066"
    INDEX 01 00:10:02
  TRACK 17 AUDIO
    TITLE "0:"
    INDEX 01 00:11:13
  TRACK 18 AUDIO
    TITLE "17:cjc020_9067"
    INDEX 01 00:11:70
  TRACK 19 AUDIO
    TITLE "0:"
    INDEX 01 00:13:08
  TRACK 20 AUDIO
    TITLE "16:cjc020_9068"
    INDEX 01 00:13:16
  TRACK 21 AUDIO
    TITLE "0:"
    INDEX 01 00:14:35
  TRACK 22 AUDIO
    TITLE "17:cjc020_9069"
    INDEX 01 00:15:23
  TRACK 23 AUDIO
    TITLE "0:"
    INDEX 01 00:16:61
  TRACK 24 AUDIO
    TITLE "16:cjc020_9070"
    INDEX 01 00:16:67
  TRACK 25 AUDIO
    TITLE "0:"
    INDEX 01 00:17:53
  TRACK 26 AUDIO
    TITLE "17:cjc020_9071"
    INDEX 01 00:18:48
  TRACK 27 AUDIO
    TITLE "0:"
    INDEX 01 00:19:46
  TRACK 28 AUDIO
    TITLE "16:cjc020_9072"
    INDEX 01 00:19:48
  TRACK 29 AUDIO
    TITLE "0:"
    INDEX 01 00:20:51
  TRACK 30 AUDIO
    TITLE "17:cjc020_9073"
    INDEX 01 00:21:35
  TRACK 31 AUDIO
    TITLE "0:"
    INDEX 01 00:22:40
  TRACK 32 AUDIO
    TITLE "16:cjc020_9074"
    INDEX 01 00:22:42
  TRACK 33 AUDIO
    TITLE "0:"
    INDEX 01 00:23:55
  TRACK 34 AUDIO
    TITLE "17:cjc020_9075"
    INDEX 01 00:24:41
  TRACK 35 AUDIO
    TITLE "0:"
    INDEX 01 00:25:31
  TRACK 36 AUDIO
    TITLE "16:cjc020_9076"
    INDEX 01 00:25:37
  TRACK 37 AUDIO
    TITLE "0:"
    INDEX 01 00:26:46
  TRACK 38 AUDIO
    TITLE "17:cjc020_9077"
    INDEX 01 00:27:30
  TRACK 39 AUDIO
    TITLE "0:"
    INDEX 01 00:28:53
  TRACK 40 AUDIO
    TITLE "16:cjc020_9078"
    INDEX 01 00:28:57
  TRACK 41 AUDIO
    TITLE "0:"
    INDEX 01 00:29:58
  TRACK 42 AUDIO
    TITLE "17:cjc020_9079"
    INDEX 01 00:30:46
  TRACK 43 AUDIO
    TITLE "0:"
    INDEX 01 00:31:67
  TRACK 44 AUDIO
    TITLE "16:cjc020_9080"
    INDEX 01 00:31:69
  TRACK 45 AUDIO
    TITLE "0:"
    INDEX 01 00:33:19
  TRACK 46 AUDIO
    TITLE "17:cjc020_9081"
    INDEX 01 00:34:04
  TRACK 47 AUDIO
    TITLE "0:"
    INDEX 01 00:35:37
  TRACK 48 AUDIO
    TITLE "16:cjc020_9082"
    INDEX 01 00:35:39
  TRACK 49 AUDIO
    TITLE "0:"
    INDEX 01 00:37:05
  TRACK 50 AUDIO
    TITLE "17:cjc020_9083"
    INDEX 01 00:37:67
  TRACK 51 AUDIO
    TITLE "0:"
    INDEX 01 00:39:02
  TRACK 52 AUDIO
    TITLE "16:cjc020_9084"
    INDEX 01 00:39:07
  TRACK 53 AUDIO
    TITLE "0:"
    INDEX 01 00:40:34
  TRACK 54 AUDIO
    TITLE "17:cjc020_9085"
    INDEX 01 00:41:10
  TRACK 55 AUDIO
    TITLE "0:"
    INDEX 01 00:42:43
  TRACK 56 AUDIO
    TITLE "16:cjc020_9086"
    INDEX 01 00:42:51
  TRACK 57 AUDIO
    TITLE "0:"
    INDEX 01 00:44:07
  TRACK 58 AUDIO
    TITLE "17:cjc020_9087"
    INDEX 01 00:44:63
  TRACK 59 AUDIO
    TITLE "0:"
    INDEX 01 00:46:17
  TRACK 60 AUDIO
    TITLE "16:cjc020_9088"
    INDEX 01 00:46:21
  TRACK 61 AUDIO
    TITLE "0:"
    INDEX 01 00:47:46
  TRACK 62 AUDIO
    TITLE "17:cjc020_9089"
    INDEX 01 00:48:32
  TRACK 63 AUDIO
    TITLE "0:"
    INDEX 01 00:49:41
  TRACK 64 AUDIO
    TITLE "16:cjc020_9090"
    INDEX 01 00:49:45
  TRACK 65 AUDIO
    TITLE "0:"
    INDEX 01 00:50:46
  TRACK 66 AUDIO
    TITLE "17:cjc020_9091"
    INDEX 01 00:51:30
  TRACK 67 AUDIO
    TITLE "0:"
    INDEX 01 00:52:43
  TRACK 68 AUDIO
    TITLE "16:cjc020_9092"
    INDEX 01 00:52:47
  TRACK 69 AUDIO
    TITLE "0:"
    INDEX 01 00:53:58
  TRACK 70 AUDIO
    TITLE "17:cjc020_9093"
    INDEX 01 00:54:42
  TRACK 71 AUDIO
    TITLE "0:"
    INDEX 01 00:56:43
  TRACK 72 AUDIO
    TITLE "16:cjc020_9094"
    INDEX 01 00:56:47
  TRACK 73 AUDIO
    TITLE "0:"
    INDEX 01 00:57:54
  TRACK 74 AUDIO
    TITLE "17:cjc020_9095"
    INDEX 01 00:58:36
  TRACK 75 AUDIO
    TITLE "0:"
    INDEX 01 00:59:22
  TRACK 76 AUDIO
    TITLE "16:cjc020_9096"
    INDEX 01 00:59:26
  TRACK 77 AUDIO
    TITLE "0:"
    INDEX 01 01:00:27
  TRACK 78 AUDIO
    TITLE "17:cjc020_9097"
    INDEX 01 01:01:11
  TRACK 79 AUDIO
    TITLE "0:"
    INDEX 01 01:02:28
  TRACK 80 AUDIO
    TITLE "16:cjc020_9098"
    INDEX 01 01:02:34
  TRACK 81 AUDIO
    TITLE "0:"
    INDEX 01 01:03:39
